<svg xmlns="http://www.w3.org/2000/svg" xmlns:xlink="http://www.w3.org/1999/xlink" viewBox="0 0 224.87999 74.999997" preserveAspectRatio="xMidYMid meet" version="1.0"><defs><g/></defs><g fill="#285b3c"><g transform="translate(7.414394, 50.493075)"><g><path d="M 20.65625 -18.5 C 20.65625 -17.726562 20.617188 -16.992188 20.546875 -16.296875 C 20.484375 -15.609375 20.453125 -14.632812 20.453125 -13.375 C 20.453125 -12.507812 20.472656 -11.78125 20.515625 -11.1875 C 20.554688 -10.601562 20.585938 -10.066406 20.609375 -9.578125 C 20.640625 -9.085938 20.65625 -8.570312 20.65625 -8.03125 C 20.65625 -6.394531 20.351562 -4.976562 19.75 -3.78125 C 19.144531 -2.59375 18.160156 -1.664062 16.796875 -1 C 15.441406 -0.332031 13.597656 0 11.265625 0 L 2.6875 0 C 2.457031 0 2.269531 -0.078125 2.125 -0.234375 C 1.988281 -0.390625 1.921875 -0.566406 1.921875 -0.765625 C 1.953125 -1.609375 1.988281 -3.097656 2.03125 -5.234375 C 2.082031 -7.378906 2.109375 -10.117188 2.109375 -13.453125 C 2.109375 -16.816406 2.082031 -19.5625 2.03125 -21.6875 C 1.988281 -23.8125 1.953125 -25.296875 1.921875 -26.140625 C 1.921875 -26.347656 1.988281 -26.53125 2.125 -26.6875 C 2.269531 -26.84375 2.457031 -26.921875 2.6875 -26.921875 L 11.265625 -26.921875 C 13.578125 -26.921875 15.410156 -26.519531 16.765625 -25.71875 C 18.117188 -24.925781 19.09375 -23.90625 19.6875 -22.65625 C 20.28125 -21.414062 20.601562 -20.109375 20.65625 -18.734375 C 20.65625 -18.679688 20.65625 -18.613281 20.65625 -18.53125 C 20.65625 -18.507812 20.65625 -18.5 20.65625 -18.5 Z M 11.1875 -4.078125 C 12.21875 -4.078125 12.972656 -4.273438 13.453125 -4.671875 C 13.941406 -5.066406 14.25 -5.566406 14.375 -6.171875 C 14.507812 -6.773438 14.578125 -7.394531 14.578125 -8.03125 L 14.578125 -18.5 C 14.578125 -18.695312 14.554688 -19.03125 14.515625 -19.5 C 14.472656 -19.976562 14.351562 -20.472656 14.15625 -20.984375 C 13.96875 -21.503906 13.648438 -21.941406 13.203125 -22.296875 C 12.753906 -22.660156 12.132812 -22.84375 11.34375 -22.84375 L 8.578125 -22.84375 C 8.367188 -22.84375 8.1875 -22.769531 8.03125 -22.625 C 7.882812 -22.488281 7.8125 -22.316406 7.8125 -22.109375 C 7.78125 -21.003906 7.757812 -19.734375 7.75 -18.296875 C 7.738281 -16.867188 7.734375 -15.253906 7.734375 -13.453125 C 7.734375 -11.691406 7.738281 -10.082031 7.75 -8.625 C 7.757812 -7.175781 7.78125 -5.90625 7.8125 -4.8125 C 7.8125 -4.601562 7.882812 -4.425781 8.03125 -4.28125 C 8.1875 -4.144531 8.367188 -4.078125 8.578125 -4.078125 Z M 11.1875 -4.078125 "/></g></g></g><g fill="#285b3c"><g transform="translate(29.985832, 50.493075)"><g><path d="M 18.421875 0 C 17.984375 0 17.726562 -0.203125 17.65625 -0.609375 C 17.601562 -0.972656 17.507812 -1.488281 17.375 -2.15625 C 17.25 -2.820312 17.097656 -3.640625 16.921875 -4.609375 C 16.835938 -5.023438 16.59375 -5.234375 16.1875 -5.234375 L 9.234375 -5.234375 C 8.816406 -5.234375 8.554688 -5.023438 8.453125 -4.609375 C 8.273438 -3.640625 8.128906 -2.820312 8.015625 -2.15625 C 7.898438 -1.488281 7.804688 -0.972656 7.734375 -0.609375 C 7.679688 -0.203125 7.4375 0 7 0 L 2.5 0 C 2.238281 0 2.03125 -0.09375 1.875 -0.28125 C 1.726562 -0.476562 1.691406 -0.691406 1.765625 -0.921875 C 1.972656 -1.816406 2.316406 -3.320312 2.796875 -5.4375 C 3.285156 -7.550781 3.878906 -10.222656 4.578125 -13.453125 C 5.316406 -16.921875 5.890625 -19.734375 6.296875 -21.890625 C 6.710938 -24.054688 6.984375 -25.523438 7.109375 -26.296875 C 7.191406 -26.710938 7.4375 -26.921875 7.84375 -26.921875 L 17.53125 -26.921875 C 17.96875 -26.921875 18.222656 -26.710938 18.296875 -26.296875 C 18.429688 -25.523438 18.703125 -24.054688 19.109375 -21.890625 C 19.515625 -19.734375 20.078125 -16.921875 20.796875 -13.453125 C 21.492188 -10.222656 22.082031 -7.550781 22.5625 -5.4375 C 23.050781 -3.320312 23.414062 -1.816406 23.65625 -0.921875 C 23.695312 -0.691406 23.640625 -0.476562 23.484375 -0.28125 C 23.335938 -0.09375 23.148438 0 22.921875 0 Z M 10.34375 -9.3125 L 15.078125 -9.3125 C 15.304688 -9.3125 15.492188 -9.398438 15.640625 -9.578125 C 15.796875 -9.753906 15.847656 -9.957031 15.796875 -10.1875 C 15.703125 -10.695312 15.59375 -11.226562 15.46875 -11.78125 C 15.351562 -12.332031 15.234375 -12.890625 15.109375 -13.453125 C 14.722656 -15.273438 14.367188 -16.921875 14.046875 -18.390625 C 13.734375 -19.867188 13.445312 -21.144531 13.1875 -22.21875 C 13.132812 -22.476562 12.972656 -22.609375 12.703125 -22.609375 C 12.441406 -22.609375 12.269531 -22.476562 12.1875 -22.21875 C 11.957031 -21.144531 11.675781 -19.867188 11.34375 -18.390625 C 11.007812 -16.921875 10.648438 -15.273438 10.265625 -13.453125 C 10.140625 -12.890625 10.019531 -12.332031 9.90625 -11.78125 C 9.789062 -11.226562 9.679688 -10.695312 9.578125 -10.1875 C 9.523438 -9.957031 9.570312 -9.753906 9.71875 -9.578125 C 9.875 -9.398438 10.082031 -9.3125 10.34375 -9.3125 Z M 10.34375 -9.3125 "/></g></g></g><g fill="#285b3c"><g transform="translate(55.402733, 50.493075)"><g><path d="M 8 -19.5 C 8 -18.695312 8.304688 -18.054688 8.921875 -17.578125 C 9.535156 -17.109375 10.335938 -16.703125 11.328125 -16.359375 C 12.316406 -16.015625 13.359375 -15.648438 14.453125 -15.265625 C 15.554688 -14.878906 16.601562 -14.382812 17.59375 -13.78125 C 18.582031 -13.175781 19.382812 -12.367188 20 -11.359375 C 20.613281 -10.347656 20.921875 -9.035156 20.921875 -7.421875 C 20.921875 -5.773438 20.625 -4.367188 20.03125 -3.203125 C 19.445312 -2.046875 18.46875 -1.15625 17.09375 -0.53125 C 15.71875 0.0820312 13.878906 0.390625 11.578125 0.390625 C 9.367188 0.390625 7.570312 0.03125 6.1875 -0.6875 C 4.800781 -1.40625 3.769531 -2.347656 3.09375 -3.515625 C 2.414062 -4.679688 2.023438 -5.921875 1.921875 -7.234375 C 1.898438 -7.429688 1.960938 -7.613281 2.109375 -7.78125 C 2.265625 -7.945312 2.457031 -8.03125 2.6875 -8.03125 L 7.234375 -8.03125 C 7.691406 -8.03125 7.929688 -7.800781 7.953125 -7.34375 C 8.003906 -6.882812 8.140625 -6.367188 8.359375 -5.796875 C 8.578125 -5.234375 8.9375 -4.738281 9.4375 -4.3125 C 9.9375 -3.894531 10.625 -3.6875 11.5 -3.6875 C 12.519531 -3.6875 13.265625 -3.859375 13.734375 -4.203125 C 14.210938 -4.554688 14.519531 -5.019531 14.65625 -5.59375 C 14.800781 -6.164062 14.875 -6.773438 14.875 -7.421875 C 14.875 -8.242188 14.5625 -8.894531 13.9375 -9.375 C 13.3125 -9.863281 12.503906 -10.28125 11.515625 -10.625 C 10.523438 -10.976562 9.476562 -11.347656 8.375 -11.734375 C 7.28125 -12.117188 6.242188 -12.609375 5.265625 -13.203125 C 4.296875 -13.804688 3.492188 -14.609375 2.859375 -15.609375 C 2.234375 -16.609375 1.921875 -17.90625 1.921875 -19.5 C 1.921875 -21.132812 2.222656 -22.535156 2.828125 -23.703125 C 3.429688 -24.867188 4.410156 -25.757812 5.765625 -26.375 C 7.128906 -26.988281 8.976562 -27.296875 11.3125 -27.296875 C 13.488281 -27.296875 15.242188 -26.9375 16.578125 -26.21875 C 17.910156 -25.5 18.894531 -24.554688 19.53125 -23.390625 C 20.175781 -22.234375 20.550781 -21 20.65625 -19.6875 C 20.65625 -19.476562 20.582031 -19.289062 20.4375 -19.125 C 20.289062 -18.957031 20.101562 -18.875 19.875 -18.875 L 15.34375 -18.875 C 14.882812 -18.875 14.628906 -19.109375 14.578125 -19.578125 C 14.546875 -20.035156 14.445312 -20.546875 14.28125 -21.109375 C 14.113281 -21.671875 13.804688 -22.160156 13.359375 -22.578125 C 12.910156 -23.003906 12.25 -23.21875 11.375 -23.21875 C 10.351562 -23.21875 9.597656 -23.046875 9.109375 -22.703125 C 8.617188 -22.359375 8.3125 -21.894531 8.1875 -21.3125 C 8.0625 -20.738281 8 -20.132812 8 -19.5 Z M 8 -19.5 "/></g></g></g><g fill="#285b3c"><g transform="translate(78.281784, 50.493075)"><g/></g></g><g fill="#285b3c"><g transform="translate(89.740532, 50.493075)"><g><path d="M 28.640625 -26.921875 C 28.847656 -26.921875 29.03125 -26.84375 29.1875 -26.6875 C 29.34375 -26.53125 29.421875 -26.347656 29.421875 -26.140625 C 29.390625 -25.296875 29.347656 -23.8125 29.296875 -21.6875 C 29.242188 -19.5625 29.21875 -16.816406 29.21875 -13.453125 C 29.21875 -10.117188 29.242188 -7.378906 29.296875 -5.234375 C 29.347656 -3.097656 29.390625 -1.609375 29.421875 -0.765625 C 29.421875 -0.566406 29.34375 -0.390625 29.1875 -0.234375 C 29.03125 -0.078125 28.847656 0 28.640625 0 L 24.15625 0 C 23.945312 0 23.765625 -0.078125 23.609375 -0.234375 C 23.453125 -0.390625 23.390625 -0.566406 23.421875 -0.765625 C 23.441406 -1.609375 23.476562 -3.097656 23.53125 -5.234375 C 23.582031 -7.378906 23.609375 -10.117188 23.609375 -13.453125 C 23.609375 -15.066406 23.601562 -16.535156 23.59375 -17.859375 C 23.582031 -19.179688 23.5625 -20.367188 23.53125 -21.421875 C 23.53125 -21.617188 23.429688 -21.722656 23.234375 -21.734375 C 23.046875 -21.753906 22.925781 -21.660156 22.875 -21.453125 C 22.695312 -20.429688 22.492188 -19.242188 22.265625 -17.890625 C 22.035156 -16.546875 21.789062 -15.066406 21.53125 -13.453125 C 20.988281 -10.046875 20.5625 -7.257812 20.25 -5.09375 C 19.945312 -2.925781 19.757812 -1.445312 19.6875 -0.65625 C 19.613281 -0.21875 19.359375 0 18.921875 0 L 12.421875 0 C 11.960938 0 11.707031 -0.21875 11.65625 -0.65625 C 11.550781 -1.445312 11.347656 -2.925781 11.046875 -5.09375 C 10.753906 -7.257812 10.328125 -10.046875 9.765625 -13.453125 C 9.503906 -15.066406 9.257812 -16.546875 9.03125 -17.890625 C 8.800781 -19.242188 8.597656 -20.429688 8.421875 -21.453125 C 8.390625 -21.660156 8.28125 -21.753906 8.09375 -21.734375 C 7.90625 -21.722656 7.8125 -21.617188 7.8125 -21.421875 C 7.78125 -20.367188 7.757812 -19.179688 7.75 -17.859375 C 7.738281 -16.535156 7.734375 -15.066406 7.734375 -13.453125 C 7.734375 -10.117188 7.757812 -7.378906 7.8125 -5.234375 C 7.863281 -3.097656 7.898438 -1.609375 7.921875 -0.765625 C 7.921875 -0.566406 7.847656 -0.390625 7.703125 -0.234375 C 7.566406 -0.078125 7.382812 0 7.15625 0 L 2.6875 0 C 2.457031 0 2.269531 -0.078125 2.125 -0.234375 C 1.988281 -0.390625 1.921875 -0.566406 1.921875 -0.765625 C 1.953125 -1.609375 1.988281 -3.097656 2.03125 -5.234375 C 2.082031 -7.378906 2.109375 -10.117188 2.109375 -13.453125 C 2.109375 -16.816406 2.082031 -19.5625 2.03125 -21.6875 C 1.988281 -23.8125 1.953125 -25.296875 1.921875 -26.140625 C 1.921875 -26.347656 1.988281 -26.53125 2.125 -26.6875 C 2.269531 -26.84375 2.457031 -26.921875 2.6875 -26.921875 L 11.421875 -26.921875 C 11.859375 -26.921875 12.101562 -26.703125 12.15625 -26.265625 C 12.257812 -25.472656 12.457031 -24 12.75 -21.84375 C 13.039062 -19.6875 13.46875 -16.890625 14.03125 -13.453125 C 14.289062 -11.890625 14.53125 -10.453125 14.75 -9.140625 C 14.96875 -7.835938 15.164062 -6.675781 15.34375 -5.65625 C 15.363281 -5.476562 15.460938 -5.390625 15.640625 -5.390625 C 15.828125 -5.390625 15.929688 -5.476562 15.953125 -5.65625 C 16.160156 -6.675781 16.375 -7.835938 16.59375 -9.140625 C 16.8125 -10.453125 17.046875 -11.890625 17.296875 -13.453125 C 17.835938 -16.890625 18.257812 -19.6875 18.5625 -21.84375 C 18.875 -24 19.070312 -25.472656 19.15625 -26.265625 C 19.195312 -26.703125 19.453125 -26.921875 19.921875 -26.921875 Z M 28.640625 -26.921875 "/></g></g></g><g fill="#285b3c"><g transform="translate(121.079061, 50.493075)"><g><path d="M 18.421875 0 C 17.984375 0 17.726562 -0.203125 17.65625 -0.609375 C 17.601562 -0.972656 17.507812 -1.488281 17.375 -2.15625 C 17.25 -2.820312 17.097656 -3.640625 16.921875 -4.609375 C 16.835938 -5.023438 16.59375 -5.234375 16.1875 -5.234375 L 9.234375 -5.234375 C 8.816406 -5.234375 8.554688 -5.023438 8.453125 -4.609375 C 8.273438 -3.640625 8.128906 -2.820312 8.015625 -2.15625 C 7.898438 -1.488281 7.804688 -0.972656 7.734375 -0.609375 C 7.679688 -0.203125 7.4375 0 7 0 L 2.5 0 C 2.238281 0 2.03125 -0.09375 1.875 -0.28125 C 1.726562 -0.476562 1.691406 -0.691406 1.765625 -0.921875 C 1.972656 -1.816406 2.316406 -3.320312 2.796875 -5.4375 C 3.285156 -7.550781 3.878906 -10.222656 4.578125 -13.453125 C 5.316406 -16.921875 5.890625 -19.734375 6.296875 -21.890625 C 6.710938 -24.054688 6.984375 -25.523438 7.109375 -26.296875 C 7.191406 -26.710938 7.4375 -26.921875 7.84375 -26.921875 L 17.53125 -26.921875 C 17.96875 -26.921875 18.222656 -26.710938 18.296875 -26.296875 C 18.429688 -25.523438 18.703125 -24.054688 19.109375 -21.890625 C 19.515625 -19.734375 20.078125 -16.921875 20.796875 -13.453125 C 21.492188 -10.222656 22.082031 -7.550781 22.5625 -5.4375 C 23.050781 -3.320312 23.414062 -1.816406 23.65625 -0.921875 C 23.695312 -0.691406 23.640625 -0.476562 23.484375 -0.28125 C 23.335938 -0.09375 23.148438 0 22.921875 0 Z M 10.34375 -9.3125 L 15.078125 -9.3125 C 15.304688 -9.3125 15.492188 -9.398438 15.640625 -9.578125 C 15.796875 -9.753906 15.847656 -9.957031 15.796875 -10.1875 C 15.703125 -10.695312 15.59375 -11.226562 15.46875 -11.78125 C 15.351562 -12.332031 15.234375 -12.890625 15.109375 -13.453125 C 14.722656 -15.273438 14.367188 -16.921875 14.046875 -18.390625 C 13.734375 -19.867188 13.445312 -21.144531 13.1875 -22.21875 C 13.132812 -22.476562 12.972656 -22.609375 12.703125 -22.609375 C 12.441406 -22.609375 12.269531 -22.476562 12.1875 -22.21875 C 11.957031 -21.144531 11.675781 -19.867188 11.34375 -18.390625 C 11.007812 -16.921875 10.648438 -15.273438 10.265625 -13.453125 C 10.140625 -12.890625 10.019531 -12.332031 9.90625 -11.78125 C 9.789062 -11.226562 9.679688 -10.695312 9.578125 -10.1875 C 9.523438 -9.957031 9.570312 -9.753906 9.71875 -9.578125 C 9.875 -9.398438 10.082031 -9.3125 10.34375 -9.3125 Z M 10.34375 -9.3125 "/></g></g></g><g fill="#285b3c"><g transform="translate(146.495962, 50.493075)"><g><path d="M 20.71875 -23.609375 C 20.71875 -23.398438 20.640625 -23.21875 20.484375 -23.0625 C 20.335938 -22.914062 20.160156 -22.84375 19.953125 -22.84375 L 14.953125 -22.84375 C 14.753906 -22.84375 14.582031 -22.769531 14.4375 -22.625 C 14.300781 -22.488281 14.234375 -22.316406 14.234375 -22.109375 C 14.203125 -21.003906 14.179688 -19.734375 14.171875 -18.296875 C 14.160156 -16.867188 14.15625 -15.253906 14.15625 -13.453125 C 14.15625 -10.117188 14.171875 -7.378906 14.203125 -5.234375 C 14.242188 -3.097656 14.273438 -1.609375 14.296875 -0.765625 C 14.328125 -0.566406 14.265625 -0.390625 14.109375 -0.234375 C 13.953125 -0.078125 13.773438 0 13.578125 0 L 9.078125 0 C 8.867188 0 8.6875 -0.078125 8.53125 -0.234375 C 8.382812 -0.390625 8.3125 -0.566406 8.3125 -0.765625 C 8.351562 -1.609375 8.394531 -3.097656 8.4375 -5.234375 C 8.476562 -7.378906 8.5 -10.117188 8.5 -13.453125 C 8.5 -15.253906 8.488281 -16.867188 8.46875 -18.296875 C 8.457031 -19.734375 8.441406 -21.003906 8.421875 -22.109375 C 8.421875 -22.316406 8.347656 -22.488281 8.203125 -22.625 C 8.066406 -22.769531 7.882812 -22.84375 7.65625 -22.84375 L 2.6875 -22.84375 C 2.488281 -22.84375 2.3125 -22.914062 2.15625 -23.0625 C 2 -23.21875 1.921875 -23.398438 1.921875 -23.609375 L 1.921875 -26.140625 C 1.921875 -26.347656 2 -26.53125 2.15625 -26.6875 C 2.3125 -26.84375 2.488281 -26.921875 2.6875 -26.921875 L 19.953125 -26.921875 C 20.160156 -26.921875 20.335938 -26.84375 20.484375 -26.6875 C 20.640625 -26.53125 20.71875 -26.347656 20.71875 -26.140625 Z M 20.71875 -23.609375 "/></g></g></g><g fill="#285b3c"><g transform="translate(169.144298, 50.493075)"><g><path d="M 18.421875 0 C 17.984375 0 17.726562 -0.203125 17.65625 -0.609375 C 17.601562 -0.972656 17.507812 -1.488281 17.375 -2.15625 C 17.25 -2.820312 17.097656 -3.640625 16.921875 -4.609375 C 16.835938 -5.023438 16.59375 -5.234375 16.1875 -5.234375 L 9.234375 -5.234375 C 8.816406 -5.234375 8.554688 -5.023438 8.453125 -4.609375 C 8.273438 -3.640625 8.128906 -2.820312 8.015625 -2.15625 C 7.898438 -1.488281 7.804688 -0.972656 7.734375 -0.609375 C 7.679688 -0.203125 7.4375 0 7 0 L 2.5 0 C 2.238281 0 2.03125 -0.09375 1.875 -0.28125 C 1.726562 -0.476562 1.691406 -0.691406 1.765625 -0.921875 C 1.972656 -1.816406 2.316406 -3.320312 2.796875 -5.4375 C 3.285156 -7.550781 3.878906 -10.222656 4.578125 -13.453125 C 5.316406 -16.921875 5.890625 -19.734375 6.296875 -21.890625 C 6.710938 -24.054688 6.984375 -25.523438 7.109375 -26.296875 C 7.191406 -26.710938 7.4375 -26.921875 7.84375 -26.921875 L 17.53125 -26.921875 C 17.96875 -26.921875 18.222656 -26.710938 18.296875 -26.296875 C 18.429688 -25.523438 18.703125 -24.054688 19.109375 -21.890625 C 19.515625 -19.734375 20.078125 -16.921875 20.796875 -13.453125 C 21.492188 -10.222656 22.082031 -7.550781 22.5625 -5.4375 C 23.050781 -3.320312 23.414062 -1.816406 23.65625 -0.921875 C 23.695312 -0.691406 23.640625 -0.476562 23.484375 -0.28125 C 23.335938 -0.09375 23.148438 0 22.921875 0 Z M 10.34375 -9.3125 L 15.078125 -9.3125 C 15.304688 -9.3125 15.492188 -9.398438 15.640625 -9.578125 C 15.796875 -9.753906 15.847656 -9.957031 15.796875 -10.1875 C 15.703125 -10.695312 15.59375 -11.226562 15.46875 -11.78125 C 15.351562 -12.332031 15.234375 -12.890625 15.109375 -13.453125 C 14.722656 -15.273438 14.367188 -16.921875 14.046875 -18.390625 C 13.734375 -19.867188 13.445312 -21.144531 13.1875 -22.21875 C 13.132812 -22.476562 12.972656 -22.609375 12.703125 -22.609375 C 12.441406 -22.609375 12.269531 -22.476562 12.1875 -22.21875 C 11.957031 -21.144531 11.675781 -19.867188 11.34375 -18.390625 C 11.007812 -16.921875 10.648438 -15.273438 10.265625 -13.453125 C 10.140625 -12.890625 10.019531 -12.332031 9.90625 -11.78125 C 9.789062 -11.226562 9.679688 -10.695312 9.578125 -10.1875 C 9.523438 -9.957031 9.570312 -9.753906 9.71875 -9.578125 C 9.875 -9.398438 10.082031 -9.3125 10.34375 -9.3125 Z M 10.34375 -9.3125 "/></g></g></g><g fill="#285b3c"><g transform="translate(194.561199, 50.493075)"><g><path d="M 8 -19.5 C 8 -18.695312 8.304688 -18.054688 8.921875 -17.578125 C 9.535156 -17.109375 10.335938 -16.703125 11.328125 -16.359375 C 12.316406 -16.015625 13.359375 -15.648438 14.453125 -15.265625 C 15.554688 -14.878906 16.601562 -14.382812 17.59375 -13.78125 C 18.582031 -13.175781 19.382812 -12.367188 20 -11.359375 C 20.613281 -10.347656 20.921875 -9.035156 20.921875 -7.421875 C 20.921875 -5.773438 20.625 -4.367188 20.03125 -3.203125 C 19.445312 -2.046875 18.46875 -1.15625 17.09375 -0.53125 C 15.71875 0.0820312 13.878906 0.390625 11.578125 0.390625 C 9.367188 0.390625 7.570312 0.03125 6.1875 -0.6875 C 4.800781 -1.40625 3.769531 -2.347656 3.09375 -3.515625 C 2.414062 -4.679688 2.023438 -5.921875 1.921875 -7.234375 C 1.898438 -7.429688 1.960938 -7.613281 2.109375 -7.78125 C 2.265625 -7.945312 2.457031 -8.03125 2.6875 -8.03125 L 7.234375 -8.03125 C 7.691406 -8.03125 7.929688 -7.800781 7.953125 -7.34375 C 8.003906 -6.882812 8.140625 -6.367188 8.359375 -5.796875 C 8.578125 -5.234375 8.9375 -4.738281 9.4375 -4.3125 C 9.9375 -3.894531 10.625 -3.6875 11.5 -3.6875 C 12.519531 -3.6875 13.265625 -3.859375 13.734375 -4.203125 C 14.210938 -4.554688 14.519531 -5.019531 14.65625 -5.59375 C 14.800781 -6.164062 14.875 -6.773438 14.875 -7.421875 C 14.875 -8.242188 14.5625 -8.894531 13.9375 -9.375 C 13.3125 -9.863281 12.503906 -10.28125 11.515625 -10.625 C 10.523438 -10.976562 9.476562 -11.347656 8.375 -11.734375 C 7.28125 -12.117188 6.242188 -12.609375 5.265625 -13.203125 C 4.296875 -13.804688 3.492188 -14.609375 2.859375 -15.609375 C 2.234375 -16.609375 1.921875 -17.90625 1.921875 -19.5 C 1.921875 -21.132812 2.222656 -22.535156 2.828125 -23.703125 C 3.429688 -24.867188 4.410156 -25.757812 5.765625 -26.375 C 7.128906 -26.988281 8.976562 -27.296875 11.3125 -27.296875 C 13.488281 -27.296875 15.242188 -26.9375 16.578125 -26.21875 C 17.910156 -25.5 18.894531 -24.554688 19.53125 -23.390625 C 20.175781 -22.234375 20.550781 -21 20.65625 -19.6875 C 20.65625 -19.476562 20.582031 -19.289062 20.4375 -19.125 C 20.289062 -18.957031 20.101562 -18.875 19.875 -18.875 L 15.34375 -18.875 C 14.882812 -18.875 14.628906 -19.109375 14.578125 -19.578125 C 14.546875 -20.035156 14.445312 -20.546875 14.28125 -21.109375 C 14.113281 -21.671875 13.804688 -22.160156 13.359375 -22.578125 C 12.910156 -23.003906 12.25 -23.21875 11.375 -23.21875 C 10.351562 -23.21875 9.597656 -23.046875 9.109375 -22.703125 C 8.617188 -22.359375 8.3125 -21.894531 8.1875 -21.3125 C 8.0625 -20.738281 8 -20.132812 8 -19.5 Z M 8 -19.5 "/></g></g></g></svg>